<svg xmlns="http://www.w3.org/2000/svg" xmlns:xlink="http://www.w3.org/1999/xlink" id="Layer_1" version="1.1" viewBox="0 0 508.152 146.967">
  <!-- Generator: Adobe Illustrator 29.1.0, SVG Export Plug-In . SVG Version: 2.1.0 Build 142)  -->
  <defs fill="#ffffff">
    <style>
      .st0, .st1 {
        fill: none;
      }

      .st0, .st1, .st2 {
        stroke-miterlimit: 10;
      }

      .st0, .st2 {
        stroke: #ffffff;
      }

      .st1 {
        stroke: url(#radial-gradient);
      }

      .st2 {
        fill: #fff;
      }
    </style>
    <radialGradient id="radial-gradient" cx="290.351" cy="76.92" fx="290.351" fy="76.92" r="4.896" gradientUnits="userSpaceOnUse" fill="#ffffff">
      <stop offset="0" stop-color="#fff" fill="#ffffff"/>
      <stop offset="1" stop-color="#ffffff" fill="#ffffff"/>
    </radialGradient>
  </defs>
  <path class="st2" d="M290.324.975c2.404,0,15.539,0,18.066,0h54.21v-.02h72.29" fill="#ffffff"/>
  <path class="st0" d="M73.419,145.565c19.959,0,38.037-8.099,51.116-21.179,13.079-13.079,21.179-31.158,21.179-51.116M1.124,37.125v36.13M145.714.975c-20.023,0-38.16,8.106-51.281,21.247-11.353,11.353-18.951,26.446-20.793,43.291M218.037,70.166c-.043,1.024-.065,2.054-.065,3.089,0-19.974-8.078-38.03-21.154-51.106C183.741,9.053,165.666.975,145.712.975M362.594,73.265c0-19.977-8.099-38.035-21.177-51.113-13.078-13.098-31.136-21.177-51.093-21.177M292.495,145.549c19.091-.569,36.314-8.549,48.916-21.151,13.082-13.082,21.183-31.165,21.183-51.128M290.299.985c-19.977,0-38.035,8.099-51.113,21.177-13.098,13.078-21.177,31.136-21.177,51.093M1.124,37.142v-18.084c0-9.987,8.096-18.083,18.083-18.083h36.167c9.987,0,18.083,8.096,18.083,18.083v18.084" fill="#ffffff"/>
  <path class="st0" d="M1.124,73.27c0,39.917,32.358,72.295,72.295,72.295" fill="#ffffff"/>
  <path class="st0" d="M145.714,73.27c0,39.917,32.358,72.295,72.295,72.295" fill="#ffffff"/>
  <path class="st0" d="M218.004,145.565c18.778,0,35.751-7.691,48.044-20.11,12.312-12.419,19.906-29.585,19.906-48.536" fill="#ffffff"/>
  <line class="st0" x1="73.424" y1="37.125" x2="73.424" y2="73.27" fill="#ffffff"/>
  <path class="st0" d="M254.138,135.062c11.261,6.674,24.366,10.493,38.357,10.493" fill="#ffffff"/>
  <path class="st0" d="M434.89,109.4v-24.097c0-6.654,5.394-12.048,12.048-12.048h24.097" fill="#ffffff"/>
  <path class="st0" d="M362.58,73.255v58.751c0,7.488,6.07,13.558,13.559,13.558h45.193c7.488,0,13.559-6.07,13.559-13.558v-22.606" fill="#ffffff"/>
  <path class="st0" d="M471.035,73.28h18.098c9.985,0,18.08-8.095,18.08-18.08V19.036c0-9.986-8.095-18.081-18.081-18.081h-18.081" fill="#ffffff"/>
  <line class="st2" x1="471.051" y1=".955" x2="434.889" y2=".955" fill="#ffffff"/>
  <path class="st1" d="M286.159,78.248c.563,1.779,2.227,3.068,4.192,3.068h0c2.428,0,4.396-1.968,4.396-4.396h0c0-2.428-1.968-4.396-4.396-4.396h0c-2.428,0-4.396,1.968-4.396,4.396h0c0,.463.072.909.204,1.328" fill="#ffffff"/>
</svg>